<svg width="119" height="154" viewBox="0 0 119 154" fill="none" xmlns="http://www.w3.org/2000/svg">
<path d="M71.8191 86.8472C70.4608 87.1514 69.1378 87.715 67.9322 88.5024C64.7915 90.5037 62.9642 93.3604 63.8511 94.8826C64.738 96.4047 68.0031 96.0154 71.1439 94.0141C72.3657 93.2545 73.451 92.2837 74.3332 91.1618C74.7426 90.6197 74.8161 89.9442 74.5209 89.4393L73.3687 87.4619C73.0755 86.9554 72.4674 86.7145 71.8191 86.8472Z" fill="#D5D6DB"/>
<path d="M63.9321 59.8541C62.9472 60.0748 61.9877 60.4837 61.1135 61.0547C58.8366 62.5055 57.5109 64.5769 58.1535 65.6797C58.7961 66.7825 61.1645 66.4999 63.4412 65.0493C64.327 64.4982 65.114 63.794 65.7538 62.9803C66.0503 62.5874 66.1034 62.098 65.8894 61.732L65.0551 60.3002C64.8428 59.933 64.4022 59.758 63.9321 59.8541Z" fill="#D5D6DB"/>
<path d="M51.118 60.9845C50.8988 60.9601 50.665 61.0185 50.4622 61.148L45.114 64.5562C44.6667 64.8404 44.4877 65.3878 44.7146 65.779C44.7665 65.8686 44.8375 65.9451 44.9237 66.0041L58.1054 75.0891L75.9388 63.7244L51.118 60.9845Z" fill="#029BC5"/>
<path d="M107.495 59.6999L58.9629 90.252L30.2502 101.677L15.607 104.588L13.9961 101.851L94.8912 51.9043C97.302 50.4095 99.9877 49.4919 102.676 49.2448C103.854 49.1429 105.017 49.1821 106.138 49.3609C107.132 49.5116 108.075 49.8023 108.939 50.2244C109.902 50.7026 111.737 50.7578 112.331 51.7106C112.333 51.7091 113.735 56.0835 107.495 59.6999Z" fill="#E1E6E9"/>
<path d="M65.0008 95.4354L39.0658 120.457C38.7291 120.8 38.7315 121.064 39.0708 121.048C39.2791 121.038 39.5777 120.922 39.8641 120.74L45.2082 117.35C46.2361 116.697 47.2078 115.974 48.0632 115.225L94.1822 76.5953L65.0008 95.4354Z" fill="#029BC5"/>
<path d="M6.62667 85.092C6.27645 84.9723 5.85966 85.0344 5.50784 85.2584L1.09034 88.0718C0.488427 88.4549 0.248576 89.1913 0.554438 89.717C0.612713 89.8169 0.688413 89.9049 0.779149 89.9773L13.1559 99.8896L26.1689 91.7615L6.62667 85.092Z" fill="#029BC5"/>
<path d="M17.3044 101.677L10.6429 111.006C10.5452 111.14 10.5682 111.308 10.6941 111.382C10.785 111.435 10.909 111.425 11.0098 111.358L15.138 108.742C15.1701 108.721 15.1991 108.696 15.2231 108.667L24.9567 96.832L17.3044 101.677Z" fill="#029BC5"/>
<path d="M105.341 49.7631C104.187 49.5777 102.989 49.5381 101.776 49.6447C100.595 51.2958 99.8407 53.1505 99.5873 55.0239C99.5688 55.4002 99.8722 55.6711 100.265 55.6289C100.387 55.6156 100.509 55.5727 100.618 55.504L108.226 50.6597C107.336 50.2211 106.365 49.9193 105.341 49.7631Z" fill="#029BC5"/>
<path d="M88.7622 58.6713L93.7292 55.5343L98.3558 63.4033L93.3888 66.5403L88.7622 58.6713Z" fill="#D5D6DB"/>
<path d="M86.5081 60.941C86.2615 60.9798 86.2711 61.468 86.5297 62.0314L86.9487 62.9443C87.2154 63.506 87.6244 63.9145 87.8622 63.8566C88.0884 63.8014 88.0794 63.3414 87.8412 62.8038L87.4223 61.8909C87.1639 61.3279 86.7547 60.9027 86.5081 60.941V60.941Z" fill="#3A556A"/>
<path d="M84.6587 61.185C84.4122 61.2238 84.4218 61.7119 84.6804 62.2754L85.0994 63.1883C85.3661 63.75 85.775 64.1584 86.0128 64.1006C86.2391 64.0454 86.23 63.5854 85.9919 63.0478L85.5729 62.1349C85.3144 61.5719 84.9052 61.1467 84.6587 61.185V61.185Z" fill="#3A556A"/>
<path d="M82.8088 61.429C82.5627 61.4684 82.5726 61.9563 82.831 62.5193L83.25 63.4321C83.5167 63.9938 83.9256 64.4023 84.1634 64.3445C84.3897 64.2892 84.3807 63.8293 84.1425 63.2917L83.7235 62.3788C83.4649 61.8153 83.0554 61.3901 82.8088 61.429V61.429Z" fill="#3A556A"/>
<path d="M80.9594 61.6728C80.7133 61.7123 80.7232 62.2001 80.9816 62.7631L81.4006 63.676C81.6673 64.2377 82.0763 64.6462 82.3141 64.5883C82.5403 64.5331 82.5313 64.0731 82.2932 63.5355L81.8742 62.6226C81.6155 62.0592 81.206 61.634 80.9594 61.6728V61.6728Z" fill="#3A556A"/>
<path d="M79.1104 61.9171C78.8641 61.9566 78.874 62.4446 79.1325 63.0079L79.5517 63.9212C79.8101 64.4842 80.2194 64.9092 80.4659 64.8705C80.7124 64.8317 80.7027 64.3439 80.4443 63.7809L80.0251 62.8676C79.767 62.3045 79.3577 61.879 79.1109 61.917C79.1107 61.917 79.1106 61.9171 79.1104 61.9171Z" fill="#3A556A"/>
<path d="M77.2612 62.161C77.015 62.2005 77.0249 62.6886 77.2834 63.2518L77.7026 64.1651C77.961 64.7282 78.3703 65.1532 78.6168 65.1144C78.8633 65.0757 78.8536 64.5878 78.5952 64.0248L78.176 63.1115C77.9179 62.5484 77.5086 62.1229 77.2618 62.161C77.2615 62.161 77.2613 62.161 77.2612 62.161Z" fill="#3A556A"/>
<path d="M75.4116 62.4049C75.1654 62.4444 75.1753 62.9324 75.4338 63.4956L75.853 64.4089C76.1117 64.9719 76.521 65.3961 76.767 65.3567C77.0127 65.3173 77.003 64.8305 76.7454 64.2686L76.3262 63.3554C76.0678 62.7921 75.6584 62.3666 75.4116 62.4049Z" fill="#3A556A"/>
<path d="M73.5622 62.6487C73.316 62.6882 73.3259 63.1762 73.5844 63.7395L74.0036 64.6528C74.2623 65.2158 74.6716 65.64 74.9177 65.6006C75.1633 65.5612 75.1536 65.0744 74.8961 64.5125L74.4769 63.5992C74.2185 63.0359 73.809 62.6104 73.5622 62.6487Z" fill="#3A556A"/>
<path d="M71.7131 62.8927C71.4669 62.9322 71.4768 63.4202 71.7353 63.9834L72.1545 64.8967C72.4132 65.4597 72.8225 65.8839 73.0685 65.8445C73.3142 65.8051 73.3045 65.3183 73.047 64.7564L72.6278 63.8432C72.3692 63.2799 71.9598 62.8544 71.7131 62.8927Z" fill="#3A556A"/>
<path d="M69.8633 63.1366C69.6168 63.1754 69.6265 63.6632 69.8849 64.2262L69.8854 64.2274L70.3046 65.1407C70.5634 65.7037 70.9727 66.1279 71.2187 66.0885C71.4643 66.0491 71.4547 65.5623 71.1971 65.0004L70.7779 64.0871C70.5195 63.5238 70.1101 63.0983 69.8633 63.1366Z" fill="#3A556A"/>
<path d="M68.0144 63.3804C67.7679 63.4192 67.7776 63.907 68.036 64.47L68.0366 64.4712L68.4558 65.3845C68.7145 65.9474 69.1238 66.3717 69.3698 66.3322C69.6155 66.2929 69.6058 65.8061 69.3482 65.2442L68.9291 64.3309C68.6705 63.7677 68.2611 63.3422 68.0144 63.3804Z" fill="#3A556A"/>
</svg>
